<?xml version="1.0" encoding="UTF-8"?>
<svg version="1.1" xmlns="http://www.w3.org/2000/svg" width="335" height="335">
    <path
        d="M0 0 C0.99 0.495 0.99 0.495 2 1 C1.65453125 1.5671875 1.3090625 2.134375 0.953125 2.71875 C-0.19156922 5.45850992 0.02922376 6.65585591 0.75 9.5 C0.93046875 10.2528125 1.1109375 11.005625 1.296875 11.78125 C2.3773353 15.1907025 3.14819227 17.44024064 6.1875 19.4375 C11.49739435 20.49947887 15.55006138 17.32730304 19.8125 14.5 C28.93610888 8.73498718 39.21865344 8.2523497 49.69482422 7.24267578 C51.83808374 7.01704562 53.96467394 6.74023266 56.09765625 6.43359375 C87.73702106 1.95272982 119.23147089 6.02901332 148 20 C148.62471191 20.29745117 149.24942383 20.59490234 149.89306641 20.90136719 C165.47273894 28.40133966 178.60278916 39.05789969 191 51 C191.76441406 51.70125 192.52882813 52.4025 193.31640625 53.125 C219.10804333 77.48633163 235.54685613 114.36883834 237.875 149.5625 C237.89288574 150.35414551 237.91077148 151.14579102 237.92919922 151.96142578 C238.00175977 154.48311021 238.00175977 154.48311021 239 158 C241.20273046 159.87957434 243.32167574 160.76965386 246 162 C250.08113184 165.65153902 252.41094108 169.94523429 253.44140625 175.2890625 C252.74974495 179.53696463 249.88815296 181.23433379 246.625 183.8125 C246.02171875 184.31458984 245.4184375 184.81667969 244.796875 185.33398438 C240.30787628 189 240.30787628 189 238 189 C237.938125 190.258125 237.87625 191.51625 237.8125 192.8125 C233.98105405 229.62544694 212.16587744 266.99010393 184.6015625 291.09765625 C184.07304687 291.72542969 183.54453125 292.35320312 183 293 C183.0721875 293.78890625 183.144375 294.5778125 183.21875 295.390625 C183 298 183 298 181.6796875 299.37695312 C179.67258386 300.92925562 177.61641802 302.35021287 175.5 303.75 C174.73187988 304.27295654 173.96375977 304.79591309 173.17236328 305.3347168 C165.69792714 310.34906655 157.99595972 314.87298801 150 319 C149.37383789 319.32339355 148.74767578 319.64678711 148.10253906 319.97998047 C112.61337599 338.02015108 70.77200963 339.54551262 33.04296875 327.73046875 C9.36801935 319.86001272 -11.70876591 306.69665897 -29.57177734 289.38134766 C-30.84374846 288.15112328 -32.13358503 286.93943172 -33.42578125 285.73046875 C-55.08502842 264.99452874 -70.00722548 237.04590173 -77.75 208.3125 C-77.94883789 207.57725098 -78.14767578 206.84200195 -78.35253906 206.08447266 C-81.49142425 193.83851322 -82.34840947 181.87313699 -82.31567383 169.29052734 C-82.31252181 166.76746004 -82.33603505 164.24557905 -82.36132812 161.72265625 C-82.41802211 147.40668375 -80.57390551 133.77466329 -76.3125 120.0625 C-76.05686279 119.23314941 -75.80122559 118.40379883 -75.5378418 117.54931641 C-63.12886638 78.63210647 -37.52143272 50.48038664 -5 27 C-5.2165625 26.46890625 -5.433125 25.9378125 -5.65625 25.390625 C-5.9346875 24.68421875 -6.213125 23.9778125 -6.5 23.25 C-6.7784375 22.55390625 -7.056875 21.8578125 -7.34375 21.140625 C-8 19 -8 19 -8 15 C-7.34 15 -6.68 15 -6 15 C-5.01 15.99 -5.01 15.99 -4 17 C-4.09539062 16.34773438 -4.19078125 15.69546875 -4.2890625 15.0234375 C-4.94091528 9.88441209 -5.44811064 5.77381574 -3 1 C-2.01 0.67 -1.02 0.34 0 0 Z "
        fill="#1D1B22" transform="translate(82,0)" />
    <path
        d="M0 0 C0.62471191 0.29745117 1.24942383 0.59490234 1.89306641 0.90136719 C17.47273894 8.40133966 30.60278916 19.05789969 43 31 C43.76441406 31.70125 44.52882813 32.4025 45.31640625 33.125 C71.85400782 58.19092778 87.98274686 95.99570059 90.28076172 132.13720703 C90.4244032 134.10087563 90.7012447 136.05388271 91 138 C91.99 138.66 92.98 139.32 94 140 C93.01 140 92.02 140 91 140 C90.67 140.99 90.34 141.98 90 143 C88.64892578 144.30273437 88.64892578 144.30273437 86.9453125 145.59375 C86.33042969 146.06683594 85.71554687 146.53992188 85.08203125 147.02734375 C84.43621094 147.51332031 83.79039062 147.99929687 83.125 148.5 C81.85539765 149.46694967 80.58712306 150.43564566 79.3203125 151.40625 C78.75586426 151.83228516 78.19141602 152.25832031 77.60986328 152.69726562 C75.9556128 154.03591903 74.4776302 155.47045457 73 157 C73.99 157.33 74.98 157.66 76 158 C76.1546875 157.071875 76.1546875 157.071875 76.3125 156.125 C77 154 77 154 80 152 C82.73412986 152.17088312 83.77344352 152.78153482 85.75 154.6875 C87.32663401 157.60427292 87.22275681 159.73290013 87 163 C84.64046906 160.64046906 84.50858587 159.22104383 84 156 C83.34 156 82.68 156 82 156 C82 157.32 82 158.64 82 160 C80.35 160 78.7 160 77 160 C77.99 164.455 77.99 164.455 79 169 C78.4225 168.484375 77.845 167.96875 77.25 167.4375 C75.13919218 165.7184714 75.13919218 165.7184714 72.9375 166.4375 C72.298125 166.623125 71.65875 166.80875 71 167 C70.01 166.34 69.02 165.68 68 165 C68.515625 166.093125 69.03125 167.18625 69.5625 168.3125 C71 172 71 172 70 175 C69.34 174.01 68.68 173.02 68 172 C65.24358584 172.49756092 65.24358584 172.49756092 63 174 C62.95907063 176.33297433 62.95758277 178.66705225 63 181 C62.34 180.67 61.68 180.34 61 180 C60.375 177.4375 60.375 177.4375 60 175 C59.34 175.99 58.68 176.98 58 178 C56.35 177.67 54.7 177.34 53 177 C53.70125 176.34 54.4025 175.68 55.125 175 C58.49416695 171.65014059 61.22468725 167.84347436 64 164 C56.54702898 169.51519855 49.27696053 175.256107 42 181 C42.99 181.33 43.98 181.66 45 182 C46.68704193 180.69254251 48.35360035 179.35827971 50 178 C50.99 178 51.98 178 53 178 C53.99 180.97 54.98 183.94 56 187 C53 184 53 184 52 182 C51.67 182.99 51.34 183.98 51 185 C49.35 185 47.7 185 46 185 C46.515625 185.78375 47.03125 186.5675 47.5625 187.375 C48.036875 188.24125 48.51125 189.1075 49 190 C48.67 190.66 48.34 191.32 48 192 C47.67 191.01 47.34 190.02 47 189 C46.34 189 45.68 189 45 189 C45 189.99 45 190.98 45 192 C42.69 191.67 40.38 191.34 38 191 C38.350625 191.9075 38.70125 192.815 39.0625 193.75 C39.96468779 196.87758436 40.13381507 198.05208081 39 201 C38.67 199.35 38.34 197.7 38 196 C37.34 196 36.68 196 36 196 C36 196.99 36 197.98 36 199 C33.69 198.67 31.38 198.34 29 198 C29.99 200.97 30.98 203.94 32 207 C31.34 207 30.68 207 30 207 C29.34 206.01 28.68 205.02 28 204 C26.01954441 203.33820153 26.01954441 203.33820153 24 203 C23.34 202.67 22.68 202.34 22 202 C22.33 203.98 22.66 205.96 23 208 C21.35 208.66 19.7 209.32 18 210 C18 212.31 18 214.62 18 217 C16.35 215.68 14.7 214.36 13 213 C13 213.66 13 214.32 13 215 C11.68 214.67 10.36 214.34 9 214 C9 215.98 9 217.96 9 220 C8.67 219.34 8.34 218.68 8 218 C7.34 218 6.68 218 6 218 C6 218.66 6 219.32 6 220 C5.01 219.67 4.02 219.34 3 219 C3.64662626 215.5082182 5.13717848 212.99671287 7 210 C7 209.67 7 209.34 7 209 C5.35 210.32 3.7 211.64 2 213 C-2.75 211.125 -2.75 211.125 -5 210 C-9.6377859 209.74234523 -11.75824072 209.87912036 -16 212 C-18.64 209.69 -21.28 207.38 -24 205 C-22.6696875 203.453125 -22.6696875 203.453125 -21.3125 201.875 C-18.51121718 198.60794569 -15.74710654 195.3126873 -13 192 C-13.54140625 191.7525 -14.0828125 191.505 -14.640625 191.25 C-17.5282849 189.72011396 -20.09776018 187.90849003 -22.75 186 C-23.73484375 185.29875 -24.7196875 184.5975 -25.734375 183.875 C-26.85585937 182.946875 -26.85585937 182.946875 -28 182 C-28 181.34 -28 180.68 -28 180 C-27.38125 179.7834375 -26.7625 179.566875 -26.125 179.34375 C-23.20967803 177.50023758 -22.96201661 175.76398493 -22 172.5 C-20.45657353 167.26337449 -20.45657353 167.26337449 -17.94140625 165.8125 C-17.30074219 165.544375 -16.66007812 165.27625 -16 165 C-15.29788106 163.34795544 -14.63028587 161.68076231 -14 160 C-13.01 159.34 -12.02 158.68 -11 158 C-10.71382813 157.34515625 -10.42765625 156.6903125 -10.1328125 156.015625 C-8.55799825 153.21354171 -6.85505313 152.81976266 -3.875 151.75 C-2.96492188 151.41484375 -2.05484375 151.0796875 -1.1171875 150.734375 C-0.41851562 150.49203125 0.28015625 150.2496875 1 150 C0.7834375 148.80117188 0.7834375 148.80117188 0.5625 147.578125 C-2.16270477 131.4539968 -2.16270477 131.4539968 -1 125 C0.98828125 122.796875 0.98828125 122.796875 3 121 C3.34227417 119.66893378 3.67751743 118.33599921 4 117 C4.99 116.67 5.98 116.34 7 116 C8.72467143 113.20250147 9.78516903 110.04765957 11 107 C11.46277344 105.906875 11.92554688 104.81375 12.40234375 103.6875 C12.86769531 102.553125 13.33304687 101.41875 13.8125 100.25 C14.25207031 99.18265625 14.69164062 98.1153125 15.14453125 97.015625 C16.06548721 93.7691501 16.05167424 92.17120233 15 89 C14.34 88.01 13.68 87.02 13 86 C13.78375 85.236875 14.5675 84.47375 15.375 83.6875 C19.02025581 80.09220999 19.02025581 80.09220999 20.125 75.3125 C20.08375 74.549375 20.0425 73.78625 20 73 C19.67 73.66 19.34 74.32 19 75 C18.34 75 17.68 75 17 75 C16.90203125 74.21238281 16.8040625 73.42476563 16.703125 72.61328125 C14.96194382 59.92967694 12.08795304 47.28730869 4 37 C1.97560965 36.32313189 1.97560965 36.32313189 0 36 C-1.33246128 34.39421333 -2.66304519 32.78683365 -3.984375 31.171875 C-10.39387259 24.26551714 -18.01658707 18.70500251 -27.04296875 15.9296875 C-30.68518076 14.78457989 -34.16370435 13.33836738 -37.6875 11.875 C-46.6313357 8.16681463 -53.90983824 6.69379055 -63.5 6.875 C-64.4178125 6.88402344 -65.335625 6.89304687 -66.28125 6.90234375 C-68.52111556 6.92567568 -70.76041183 6.95840765 -73 7 C-72.34 7.33 -71.68 7.66 -71 8 C-71 8.66 -71 9.32 -71 10 C-73.26550634 10.58358486 -75.53769801 11.14127095 -77.8125 11.6875 C-79.07707031 12.00074219 -80.34164062 12.31398438 -81.64453125 12.63671875 C-85 13 -85 13 -86.92578125 11.8828125 C-88.27110339 9.52482969 -88.3334355 7.8933491 -88.375 5.1875 C-88.78308426 -0.00423859 -89.97387647 -2.47714191 -94 -6 C-96.92297834 -7.56675556 -99.89166619 -8.84876526 -103 -10 C-83.11108647 -29.88891353 -21.58998866 -10.48484067 0 0 Z "
        fill="#FD212C" transform="translate(230,20)" />
    <path
        d="M0 0 C2.22394401 2.11274681 3.98940733 4.30513909 5.75 6.8125 C10.67381241 13.42621346 16.52275875 18.96721153 24.984375 20.31640625 C31.07353474 20.66086602 36.37208761 18.83971179 42.08203125 16.875 C45 16 45 16 49 16 C48.44225824 19.5047286 47.42111811 20.80796701 44.625 22.9375 C42.19105196 24.88663725 40.96711112 26.05692306 39.375 28.8125 C38 31 38 31 35.80078125 31.62109375 C25.4300558 33.02410682 16.01484676 32.23876364 6.75 27.25 C3.37876707 24.49171851 0.69770293 21.40561079 -2 18 C2.01748572 26.51784231 7.11705244 32.7611223 16.02441406 36.39746094 C19.60746825 37.4902659 23.21421177 37.57583326 26.9375 37.6875 C27.71673828 37.72166016 28.49597656 37.75582031 29.29882812 37.79101562 C31.19874393 37.8726071 33.09934403 37.93799885 35 38 C32.9636573 41.8697059 31.19666944 43.85641465 27.4375 46.0625 C23.00797992 48.73781279 18.71879892 51.53852632 14.45507812 54.47143555 C1.27938819 63.46828921 -10.47612617 70.8502038 -27 68 C-31.45091628 66.80218827 -35.67706098 65.14029391 -39.90234375 63.3125 C-42.74621244 61.86995588 -42.74621244 61.86995588 -45 62 C-42.8152247 63.27571484 -40.62738381 64.54560673 -38.4375 65.8125 C-37.82841797 66.16892578 -37.21933594 66.52535156 -36.59179688 66.89257812 C-25.42827835 73.3307978 -14.6791496 75.9219364 -1.734375 73.3515625 C8.88517208 70.16569838 15.89690396 63.25528042 23.8359375 55.8203125 C26 54 26 54 29 53 C28.54738642 54.43931117 28.08767021 55.87638999 27.625 57.3125 C27.24214844 58.51326172 27.24214844 58.51326172 26.8515625 59.73828125 C25.66750492 62.88309474 24.63405724 64.66469131 21.62890625 66.25390625 C20.11103516 66.90166016 20.11103516 66.90166016 18.5625 67.5625 C13.56871238 69.76661644 8.7868796 72.16756282 4.00097656 74.79125977 C-4.51373557 79.44843562 -12.49542575 82.92232798 -22 85 C-20.00222187 85.34640099 -18.0016592 85.67677937 -16 86 C-15.01644531 86.15984375 -14.03289063 86.3196875 -13.01953125 86.484375 C-1.54104838 87.43508978 5.9859987 82.09682989 15.25097656 75.89624023 C16.11674316 75.45260132 16.11674316 75.45260132 17 75 C19 76 19 76 20 77 C20.66 76.67 21.32 76.34 22 76 C22 81.28 22 86.56 22 92 C19.7725 92.5775 17.545 93.155 15.25 93.75 C-2.75054228 98.5517036 -17.91651974 106.01951496 -33.75415039 115.69262695 C-49.94171082 125.50398491 -49.94171082 125.50398491 -59 127 C-55.04781506 127.68733651 -51.13470669 128.1433405 -47.125 128.3125 C-46.36445312 128.34988281 -45.60390625 128.38726562 -44.8203125 128.42578125 C-37.15045299 127.26786617 -30.69465939 122.66388815 -24.375 118.4375 C-12.15775783 110.49204664 0.95872518 104.34107743 14.37109375 98.6875 C15.14251709 98.36136719 15.91394043 98.03523438 16.70874023 97.69921875 C19.24474184 96.92531266 21.36338097 96.874211 24 97 C25.35129438 99.51256298 26.68074204 102.03317942 28 104.5625 C28.3815625 105.26697266 28.763125 105.97144531 29.15625 106.69726562 C31.5335543 111.3032927 32.68116441 114.7041001 32 120 C30.72265625 123.2734375 30.72265625 123.2734375 29.0625 126.375 C28.24458984 127.93347656 28.24458984 127.93347656 27.41015625 129.5234375 C26 132 26 132 25 133 C22.55391002 133.15980437 20.13268942 133.25929447 17.68359375 133.31640625 C16.95253922 133.33718735 16.22148468 133.35796844 15.46827698 133.37937927 C13.12478344 133.44495024 10.78117461 133.50379432 8.4375 133.5625 C6.85220145 133.60567808 5.26691471 133.64929213 3.68164062 133.69335938 C-0.21212037 133.8006392 -4.10599772 133.9018849 -8 134 C-6.68 138.29 -5.36 142.58 -4 147 C-9.24175152 149.34205919 -14.53262809 151.25192871 -20 153 C-18.11845182 160.19047684 -18.11845182 160.19047684 -15.8125 167.25 C-14.71990353 170.94801881 -14.25937052 173.1621927 -15 177 C-17.67521173 179.77167369 -20.84310501 181.81232716 -24 184 C-30.73092881 189.18577848 -37.036798 194.77450616 -43.25 200.5625 C-43.91136963 201.17544922 -44.57273926 201.78839844 -45.25415039 202.41992188 C-49.28767129 206.21546353 -52.98684462 210.16902328 -56.54589844 214.41381836 C-58 216 -58 216 -60 217 C-70.26663555 196.40597958 -78.07385897 173.60934537 -78.203125 150.3828125 C-78.20882507 149.56738983 -78.21452515 148.75196716 -78.22039795 147.91183472 C-78.22980349 146.18895748 -78.23636414 144.46606262 -78.24023438 142.74316406 C-78.24984343 140.16697683 -78.28086841 137.59162227 -78.3125 135.015625 C-78.40578885 120.57216846 -76.61302486 106.9005398 -72.3125 93.0625 C-72.05686279 92.23314941 -71.80122559 91.40379883 -71.5378418 90.54931641 C-59.45014819 52.63971519 -34.43103032 23.23842079 -2 1 C-1.34 0.67 -0.68 0.34 0 0 Z "
        fill="#FB212C" transform="translate(78,27)" />
    <path
        d="M0 0 C21.37640799 16.15444783 36.64010836 41.18467336 41.14501953 67.68066406 C41.62164774 71.1957971 41.7347702 73.85371897 40.64501953 77.24316406 C40.27892578 76.77007812 39.91283203 76.29699219 39.53564453 75.80957031 C30.97162472 65.34923183 17.27754481 54.91620823 3.64501953 52.24316406 C4.39525391 52.65566406 5.14548828 53.06816406 5.91845703 53.49316406 C17.8688864 60.2359756 32.35250501 69.55148223 38.64501953 82.24316406 C38.31501953 82.90316406 37.98501953 83.56316406 37.64501953 84.24316406 C37.18095703 83.70949219 36.71689453 83.17582031 36.23876953 82.62597656 C29.31138062 75.15576987 21.41624854 70.242415 12.64501953 65.24316406 C11.8395166 64.78087402 11.03401367 64.31858398 10.20410156 63.84228516 C-2.51382077 56.6307877 -15.2759026 51.18608664 -29.35498047 47.24316406 C-30.47670654 46.92460449 -30.47670654 46.92460449 -31.62109375 46.59960938 C-44.97175359 42.92555574 -58.57885345 42.06671868 -72.35498047 41.24316406 C-67.03302697 35.60889162 -59.11145557 34.29887749 -51.61279297 33.88378906 C-31.24564337 33.32871783 -12.56393205 39.14546676 6.64501953 45.24316406 C-3.77319405 40.36904806 -14.22846349 37.09417635 -25.35498047 34.24316406 C-25.35498047 33.91316406 -25.35498047 33.58316406 -25.35498047 33.24316406 C-21.02164714 33.24316406 -16.6883138 33.24316406 -12.35498047 33.24316406 C-17.63498047 31.59316406 -22.91498047 29.94316406 -28.35498047 28.24316406 C-24.24556163 27.21580935 -22.53742238 27.3937757 -18.49560547 28.23925781 C-17.38056641 28.46806641 -16.26552734 28.696875 -15.11669922 28.93261719 C-13.95783203 29.17947266 -12.79896484 29.42632812 -11.60498047 29.68066406 C-10.43064453 29.92365234 -9.25630859 30.16664063 -8.04638672 30.41699219 C-5.1475427 31.01797205 -2.25062167 31.62696908 0.64501953 32.24316406 C-29.2681469 24.28656548 -59.58227575 21.26823669 -89.3203125 31.70483398 C-94.05843846 33.3420114 -94.05843846 33.3420114 -97.35498047 32.24316406 C-92.68389193 27.86401856 -88.18422034 24.90211558 -82.35498047 22.24316406 C-83.67498047 21.91316406 -84.99498047 21.58316406 -86.35498047 21.24316406 C-84.63642695 20.28634778 -82.90421187 19.35407494 -81.16748047 18.43066406 C-79.72308594 17.64755859 -79.72308594 17.64755859 -78.24951172 16.84863281 C-67.95866112 12.1830658 -57.1526928 11.81495514 -46.04248047 11.99316406 C-44.73730469 11.99832031 -43.43212891 12.00347656 -42.08740234 12.00878906 C-35.76213185 12.06018791 -29.60655378 12.26066078 -23.35498047 13.24316406 C-26.02120494 12.76142578 -28.68791718 12.28271781 -31.35498047 11.80566406 C-32.09876953 11.67095703 -32.84255859 11.53625 -33.60888672 11.39746094 C-53.23497027 7.89889822 -76.23031777 6.64139446 -94.64013672 15.57128906 C-95.20603516 15.79300781 -95.77193359 16.01472656 -96.35498047 16.24316406 C-97.01498047 15.91316406 -97.67498047 15.58316406 -98.35498047 15.24316406 C-96.85644531 14.17775391 -96.85644531 14.17775391 -95.32763672 13.09082031 C-94.02421589 12.16248461 -92.7208324 11.23409649 -91.41748047 10.30566406 C-90.42844727 9.60280273 -90.42844727 9.60280273 -89.41943359 8.88574219 C-86.25293212 6.72860888 -86.25293212 6.72860888 -83.35498047 4.24316406 C-84.72783203 5.01853516 -84.72783203 5.01853516 -86.12841797 5.80957031 C-87.32870587 6.47535501 -88.52923953 7.14069677 -89.72998047 7.80566406 C-90.63490234 8.3190332 -90.63490234 8.3190332 -91.55810547 8.84277344 C-93.12476288 9.70443501 -94.73788909 10.48034589 -96.35498047 11.24316406 C-97.01498047 10.91316406 -97.67498047 10.58316406 -98.35498047 10.24316406 C-90.79621574 4.51313273 -82.88504582 0.28695585 -74.35498047 -3.75683594 C-77.71402183 -3.10317857 -81.04145795 -2.37308386 -84.36669922 -1.56542969 C-85.28902344 -1.34306641 -86.21134766 -1.12070313 -87.16162109 -0.89160156 C-89.09415765 -0.42386221 -91.02644682 0.04490036 -92.95849609 0.51464844 C-93.87695312 0.73572266 -94.79541016 0.95679688 -95.74169922 1.18457031 C-96.57918701 1.38767822 -97.4166748 1.59078613 -98.27954102 1.80004883 C-100.35498047 2.24316406 -100.35498047 2.24316406 -102.35498047 2.24316406 C-97.90205521 -7.99856403 -85.09819182 -12.0534692 -75.43164062 -15.94238281 C-49.96993843 -25.92830317 -21.25843604 -15.29017514 0 0 Z "
        fill="#F9F7F1" transform="translate(146.35498046875,237.7568359375)" />
    <path
        d="M0 0 C11.15328069 7.35395297 21.52141404 15.69207153 31.60449219 24.43652344 C33.23194351 25.83444971 34.87830741 27.20656538 36.53125 28.57421875 C52.51299632 41.87363385 69.63625225 57.03091927 79.2109375 75.81640625 C78.8809375 76.47640625 78.5509375 77.13640625 78.2109375 77.81640625 C78.2109375 80.65607856 78.61360931 83.05376336 79.2109375 85.81640625 C76.71008685 83.4386744 74.62410447 80.86373683 72.5234375 78.12890625 C71.58951172 76.91654297 71.58951172 76.91654297 70.63671875 75.6796875 C70.16621094 75.06480469 69.69570312 74.44992187 69.2109375 73.81640625 C69.45851807 74.40131836 69.70609863 74.98623047 69.96118164 75.58886719 C71.07701593 78.24328403 72.17535127 80.90460122 73.2734375 83.56640625 C73.66337891 84.48679687 74.05332031 85.4071875 74.45507812 86.35546875 C75.00131836 87.68964844 75.00131836 87.68964844 75.55859375 89.05078125 C76.06918335 90.27619629 76.06918335 90.27619629 76.59008789 91.52636719 C77.27716059 94.06067389 77.07745918 95.37148957 76.2109375 97.81640625 C75.47230469 96.800625 74.73367187 95.78484375 73.97265625 94.73828125 C68.10200727 86.74648537 62.0822952 79.21411324 55.1953125 72.07421875 C53.2109375 69.81640625 53.2109375 69.81640625 53.2109375 67.81640625 C52.5509375 67.81640625 51.8909375 67.81640625 51.2109375 67.81640625 C49.48253453 66.18967404 47.84823435 64.5320624 46.2109375 62.81640625 C41.72260351 58.226275 37.22660325 53.82893885 32.2109375 49.81640625 C32.71625 50.57566406 33.2215625 51.33492188 33.7421875 52.1171875 C34.71671875 53.60798828 34.71671875 53.60798828 35.7109375 55.12890625 C36.68546875 56.60810547 36.68546875 56.60810547 37.6796875 58.1171875 C39.2109375 60.81640625 39.2109375 60.81640625 39.2109375 63.81640625 C38.75468994 63.33921143 38.29844238 62.8620166 37.82836914 62.37036133 C23.40497369 47.37844985 8.70732202 34.48156903 -9.7890625 24.81640625 C-10.89378906 24.213125 -11.99851562 23.60984375 -13.13671875 22.98828125 C-30.58692971 13.77232598 -50.47075148 8.39292774 -69.9765625 5.75390625 C-76.4187776 4.88152296 -82.00137692 2.71024904 -87.7890625 -0.18359375 C-87.7890625 -0.84359375 -87.7890625 -1.50359375 -87.7890625 -2.18359375 C-76.39914085 -2.48528279 -65.55657139 -2.76767923 -54.46875 0.16015625 C-51.6013434 0.9749854 -51.6013434 0.9749854 -47.7890625 0.81640625 C-51.54186852 -0.30748793 -55.29555051 -1.42840258 -59.05004883 -2.54663086 C-60.95114829 -3.11351554 -62.85155589 -3.68271877 -64.75195312 -4.25195312 C-65.95400391 -4.60966797 -67.15605469 -4.96738281 -68.39453125 -5.3359375 C-69.49949951 -5.66585693 -70.60446777 -5.99577637 -71.74291992 -6.33569336 C-74.41653462 -7.07989981 -77.06066613 -7.68409075 -79.7890625 -8.18359375 C-79.7890625 -8.84359375 -79.7890625 -9.50359375 -79.7890625 -10.18359375 C-69.68898606 -13.96014407 -60.47861045 -14.92755667 -49.7890625 -15.18359375 C-70.09721348 -20.90436437 -70.09721348 -20.90436437 -90.98046875 -23.015625 C-93.7890625 -23.18359375 -93.7890625 -23.18359375 -96.7890625 -25.18359375 C-96.7890625 -25.84359375 -96.7890625 -26.50359375 -96.7890625 -27.18359375 C-65.96125226 -36.9601883 -24.82820295 -15.90051334 0 0 Z "
        fill="#F8F7F1" transform="translate(170.7890625,204.18359375)" />
    <path
        d="M0 0 C-1.84293755 37.4730636 -24.48023377 74.70648151 -51 100 C-52.64202457 101.36356549 -54.2989839 102.71077551 -56 104 C-58.91555624 100.47064244 -60.82955363 96.53120078 -62.8125 92.4375 C-65.2192682 87.49283815 -67.72959839 82.71929638 -70.5625 78 C-73.34017236 73.03295587 -73.11596719 70.4868387 -72 65 C-72.89428209 61.82133292 -72.89428209 61.82133292 -74 59 C-66.60080413 52.55662731 -59.14235568 46.23804477 -51.39404297 40.2175293 C-46.87874604 36.70556214 -42.43030654 33.11846469 -38 29.5 C-32.46072517 24.98012175 -26.88255086 20.5175231 -21.24731445 16.11791992 C-18.08942318 13.65009477 -14.94944175 11.16243273 -11.828125 8.6484375 C-10.7918396 7.81421265 -10.7918396 7.81421265 -9.73461914 6.96313477 C-8.39099694 5.87974423 -7.04898089 4.79435809 -5.70874023 3.70678711 C-1.10961269 0 -1.10961269 0 0 0 Z "
        fill="#FC212C" transform="translate(320,189)" />
    <path
        d="M0 0 C4.09326466 1.51982264 6.08822198 4.39929072 8.5625 7.8125 C12.609408 13.2410178 16.83722104 18.45745905 21.24438477 23.59692383 C23.89209299 26.68468343 26.47763494 29.8089149 29 33 C35.76416615 31.74697031 35.76416615 31.74697031 42.375 29.875 C45 29 45 29 49 29 C49.06058594 29.7734375 49.12117188 30.546875 49.18359375 31.34375 C49.65892599 37.25249543 50.20914557 43.12508141 51 49 C49.93458984 49.34611328 49.93458984 49.34611328 48.84765625 49.69921875 C47.92855469 50.02535156 47.00945312 50.35148437 46.0625 50.6875 C45.14597656 51.00074219 44.22945312 51.31398437 43.28515625 51.63671875 C42.53105469 52.08660156 41.77695313 52.53648437 41 53 C40.67 54.65 40.34 56.3 40 58 C34.72 57.67 29.44 57.34 24 57 C24 57.66 24 58.32 24 59 C25.98567708 58.96744792 27.97135417 58.93489583 29.95703125 58.90234375 C32 59 32 59 35 60 C35 61.32 35 62.64 35 64 C34.236875 64.4125 33.47375 64.825 32.6875 65.25 C28.75854618 67.80838853 28.37481779 70.5861113 27 75 C21.96574726 75.76608194 19.39913381 74.95009728 15.1875 72.0625 C2.29905786 62.30802555 -8.70245382 51.42551307 -12 35 C-12.58672281 27.30490473 -12.10163136 20.14228872 -9 13 C-8.34 12.34 -7.68 11.68 -7 11 C-6.34 11.66 -5.68 12.32 -5 13 C-4.80664062 12.39671875 -4.61328125 11.7934375 -4.4140625 11.171875 C-4.15367187 10.37265625 -3.89328125 9.5734375 -3.625 8.75 C-3.36976563 7.96109375 -3.11453125 7.1721875 -2.8515625 6.359375 C-2.04826333 4.13372042 -1.10288338 2.09068328 0 0 Z "
        fill="#F9F8F2" transform="translate(178,120)" />
    <path
        d="M0 0 C0.71833008 0.29471191 1.43666016 0.58942383 2.17675781 0.89306641 C14.90149047 6.15988968 27.52463676 11.92030641 38 21 C34.47004213 21 33.52491483 20.22490231 30.625 18.3125 C25.64325645 15.22163721 20.58386639 13.15549687 15.0859375 11.15625 C12.48441232 10.18150132 10.05231745 9.09676916 7.5625 7.875 C1.69332496 5.17122273 -4.68546655 4.1856592 -11 3 C-7.68304777 6.57070813 -4.70354782 8.95784557 -0.3125 11.0625 C0.72777344 11.56136719 1.76804688 12.06023437 2.83984375 12.57421875 C7.17267886 14.52908255 11.55123313 16.32679122 16 18 C16 18.66 16 19.32 16 20 C16.54309814 20.16363037 17.08619629 20.32726074 17.64575195 20.49584961 C23.47860793 22.33520723 28.79388126 24.69154036 34.1875 27.5625 C35.01121094 27.99941162 35.83492188 28.43632324 36.68359375 28.88647461 C51.44240485 36.88608253 64.29434274 47.59279788 76.65625 58.87890625 C78.79924312 60.81831503 80.98344638 62.69329299 83.1875 64.5625 C91.8928408 72.18621529 99.41356824 81.87890296 105 92 C105 92.66 105 93.32 105 94 C105.66 94 106.32 94 107 94 C107.33 93.34 107.66 92.68 108 92 C108.70088156 93.74468372 109.38524009 95.49601161 110.0625 97.25 C110.44535156 98.22453125 110.82820312 99.1990625 111.22265625 100.203125 C112.03645133 103.13115153 111.84515582 104.18807969 111 107 C110.26136719 105.98421875 109.52273437 104.9684375 108.76171875 103.921875 C102.89106977 95.93007912 96.8713577 88.39770699 89.984375 81.2578125 C88 79 88 79 88 77 C87.34 77 86.68 77 86 77 C84.27159703 75.37326779 82.63729685 73.71565615 81 72 C76.51166601 67.40986875 72.01566575 63.0125326 67 59 C67.5053125 59.75925781 68.010625 60.51851563 68.53125 61.30078125 C69.50578125 62.79158203 69.50578125 62.79158203 70.5 64.3125 C71.47453125 65.79169922 71.47453125 65.79169922 72.46875 67.30078125 C74 70 74 70 74 73 C73.54375244 72.52280518 73.08750488 72.04561035 72.61743164 71.55395508 C58.19403619 56.5620436 43.49638452 43.66516278 25 34 C23.89527344 33.39671875 22.79054688 32.7934375 21.65234375 32.171875 C4.20213279 22.95591973 -15.68168898 17.57652149 -35.1875 14.9375 C-41.6297151 14.06511671 -47.21231442 11.89384279 -53 9 C-53 8.34 -53 7.68 -53 7 C-41.61007835 6.69831096 -30.76750889 6.41591452 -19.6796875 9.34375 C-16.8122809 10.15857915 -16.8122809 10.15857915 -13 10 C-16.75280602 8.87610582 -20.50648801 7.75519117 -24.26098633 6.63696289 C-26.16208579 6.07007821 -28.06249339 5.50087498 -29.96289062 4.93164062 C-31.16494141 4.57392578 -32.36699219 4.21621094 -33.60546875 3.84765625 C-35.26292114 3.3527771 -35.26292114 3.3527771 -36.95385742 2.84790039 C-39.62747212 2.10369394 -42.27160363 1.499503 -45 1 C-45 0.34 -45 -0.32 -45 -1 C-29.29441816 -7.1183484 -15.5502929 -6.52318374 0 0 Z "
        fill="#ECEAE5" transform="translate(136,195)" />
    <path
        d="M0 0 C9.27421389 0.30357492 17.29336549 1.89440071 26 5 C26.99402832 5.35255859 27.98805664 5.70511719 29.01220703 6.06835938 C36.35359102 8.67910245 43.68095283 11.32732865 51 14 C50.36908447 13.73783691 49.73816895 13.47567383 49.08813477 13.20556641 C46.24332311 12.01893802 43.40291079 10.82212206 40.5625 9.625 C39.56927734 9.2125 38.57605469 8.8 37.55273438 8.375 C36.60849609 7.97539063 35.66425781 7.57578125 34.69140625 7.1640625 C33.37958374 6.61419678 33.37958374 6.61419678 32.04125977 6.05322266 C30 5 30 5 29 3 C53.72167181 2.08671531 85.78874814 21.66324488 105 36 C104.505 36.99 104.505 36.99 104 38 C99.44684052 37.38188466 95.71540233 35.53234107 91.6875 33.4375 C91.04232422 33.10814453 90.39714844 32.77878906 89.73242188 32.43945312 C88.15214772 31.63175745 86.57567895 30.81662387 85 30 C85.74056641 30.77923828 85.74056641 30.77923828 86.49609375 31.57421875 C87.13675781 32.27160156 87.77742188 32.96898437 88.4375 33.6875 C89.07558594 34.37199219 89.71367187 35.05648437 90.37109375 35.76171875 C92.16221098 38.22289422 92.62798558 40.00816574 93 43 C88.39146203 42.27991594 84.32762591 40.68704061 80 39 C83.3 41.31 86.6 43.62 90 46 C85.69320928 46 82.75073731 43.73610039 79.125 41.625 C56.88476763 29.01792426 33.26572944 19.19557852 9.01538086 11.15551758 C3.20360633 9.20360633 3.20360633 9.20360633 1 7 C4.3 7.33 7.6 7.66 11 8 C10.28972656 7.59007813 9.57945312 7.18015625 8.84765625 6.7578125 C7.92855469 6.21898438 7.00945312 5.68015625 6.0625 5.125 C5.14597656 4.59132813 4.22945312 4.05765625 3.28515625 3.5078125 C1 2 1 2 0 0 Z "
        fill="#F5F4EE" transform="translate(139,76)" />
    <path
        d="M0 0 C12.81104403 0.28240778 23.40786023 5.04218358 34 12 C32.02 9.69 30.04 7.38 28 5 C42.98505697 10.18401971 53.20245196 26.12318422 60.32421875 39.484375 C62.38709482 43.79831934 63.50062778 47.11887914 63 52 C59.88917154 48.34100794 57.5947754 44.62875463 55.375 40.375 C53.67863841 37.13783837 52.02775183 34.04162774 50 31 C50.34224609 32.01320313 50.34224609 32.01320313 50.69140625 33.046875 C51.12259766 34.38492188 51.12259766 34.38492188 51.5625 35.75 C51.85253906 36.63171875 52.14257812 37.5134375 52.44140625 38.421875 C53.02820739 41.13018796 52.75639869 42.39972846 52 45 C51.52280518 44.50185791 51.04561035 44.00371582 50.55395508 43.49047852 C41.33000647 33.91674378 32.49278524 24.83767302 21 18 C20.08089844 17.443125 19.16179687 16.88625 18.21484375 16.3125 C6.01743119 9.29240644 -6.22407386 6.02926816 -20 4 C-20 3.67 -20 3.34 -20 3 C-3.51973652 2.34176462 10.37204587 6.48952803 25 14 C25 13.34 25 12.68 25 12 C23.97712891 11.61328125 23.97712891 11.61328125 22.93359375 11.21875 C18.9291552 9.55512173 15.10722575 7.55891539 11.25976562 5.56640625 C7.58164798 3.69317912 3.94706516 2.20521073 0 1 C0 0.67 0 0.34 0 0 Z "
        fill="#6D7073" transform="translate(176,36)" />
    <path
        d="M0 0 C5.5792243 0.92135673 9.97664479 3.31968807 14.9375 5.9375 C15.87319824 6.43040527 16.80889648 6.92331055 17.77294922 7.43115234 C32.90939044 15.56272856 45.99451886 26.31906626 58.65625 37.87890625 C60.79924312 39.81831503 62.98344638 41.69329299 65.1875 43.5625 C73.8928408 51.18621529 81.41356824 60.87890296 87 71 C87 71.66 87 72.32 87 73 C87.66 73 88.32 73 89 73 C89.33 72.34 89.66 71.68 90 71 C90.70088156 72.74468372 91.38524009 74.49601161 92.0625 76.25 C92.44535156 77.22453125 92.82820313 78.1990625 93.22265625 79.203125 C94.03645133 82.13115153 93.84515582 83.18807969 93 86 C91.89205078 84.47632813 91.89205078 84.47632813 90.76171875 82.921875 C84.89106977 74.93007912 78.8713577 67.39770699 71.984375 60.2578125 C70 58 70 58 70 56 C69.34 56 68.68 56 68 56 C66.27142789 54.3731086 64.63530658 52.71789782 63 51 C58.83517981 46.66018736 54.81706424 42.564813 49.73828125 39.30078125 C47.24721114 37.4366771 45.18080872 35.21634782 43 33 C31.46951838 21.96125951 19.48056146 12.6146662 5.73974609 4.49023438 C4.99418457 4.04873047 4.24862305 3.60722656 3.48046875 3.15234375 C2.80910889 2.76038818 2.13774902 2.36843262 1.44604492 1.96459961 C0.9688501 1.64628174 0.49165527 1.32796387 0 1 C0 0.67 0 0.34 0 0 Z "
        fill="#AEB0AF" transform="translate(154,216)" />
    <path
        d="M0 0 C0.99 0 1.98 0 3 0 C3.99 2.97 4.98 5.94 6 9 C3 6 3 6 2 4 C1.67 4.99 1.34 5.98 1 7 C-0.65 7 -2.3 7 -4 7 C-3.2265625 8.175625 -3.2265625 8.175625 -2.4375 9.375 C-1.963125 10.24125 -1.48875 11.1075 -1 12 C-1.33 12.66 -1.66 13.32 -2 14 C-2.495 12.515 -2.495 12.515 -3 11 C-3.66 11 -4.32 11 -5 11 C-5 11.99 -5 12.98 -5 14 C-7.31 13.67 -9.62 13.34 -12 13 C-11.4740625 14.36125 -11.4740625 14.36125 -10.9375 15.75 C-10.03531221 18.87758436 -9.86618493 20.05208081 -11 23 C-11.33 21.35 -11.66 19.7 -12 18 C-12.66 18 -13.32 18 -14 18 C-14 18.99 -14 19.98 -14 21 C-16.31 20.67 -18.62 20.34 -21 20 C-19.515 24.455 -19.515 24.455 -18 29 C-18.66 29 -19.32 29 -20 29 C-20.66 28.01 -21.32 27.02 -22 26 C-23.98045559 25.33820153 -23.98045559 25.33820153 -26 25 C-26.66 24.67 -27.32 24.34 -28 24 C-27.67 25.98 -27.34 27.96 -27 30 C-28.65 30.66 -30.3 31.32 -32 32 C-32 34.31 -32 36.62 -32 39 C-33.65 37.68 -35.3 36.36 -37 35 C-37 35.66 -37 36.32 -37 37 C-38.32 36.67 -39.64 36.34 -41 36 C-41 37.98 -41 39.96 -41 42 C-41.33 41.34 -41.66 40.68 -42 40 C-42.66 40 -43.32 40 -44 40 C-44 40.66 -44 41.32 -44 42 C-44.99 41.67 -45.98 41.34 -47 41 C-44.82968551 29.28030175 -33.55697369 22.06777712 -24.73779297 15.33691406 C-21.44221779 12.80157131 -18.22161494 10.17243157 -14.98828125 7.55859375 C-12.00307086 5.21851724 -10.33387959 4.04173495 -6.5 3.5625 C-2.85968463 2.97744932 -2.27892748 2.6207666 0 0 Z "
        fill="#302129" transform="translate(280,198)" />
    <path
        d="M0 0 C7.25116066 0.46039115 14.00403315 1.83154949 21.02124023 3.62792969 C24.75902345 4.56484672 28.14017795 5.23507757 32 5 C32.0515625 5.58136719 32.103125 6.16273438 32.15625 6.76171875 C33.40253553 10.06783732 35.53117663 10.97197945 38.5 12.8125 C47.69974646 18.71340247 55.40613319 25.1447764 63 33 C64.3310325 34.3356302 65.66366705 35.66967304 67 37 C67.33 35.68 67.66 34.36 68 33 C68.495 36.96 68.495 36.96 69 41 C64.79987518 39.44777996 61.41219657 37.6662051 57.8125 35 C48.59802073 28.32843129 38.18694222 23.03865607 28 18 C31 17 31 17 33 17 C23.27194657 12.51746558 13.3362342 9.6989056 3 7 C3 6.67 3 6.34 3 6 C7.33333333 6 11.66666667 6 16 6 C10.72 4.35 5.44 2.7 0 1 C0 0.67 0 0.34 0 0 Z "
        fill="#B9B8B6" transform="translate(118,265)" />
    <path
        d="M0 0 C10.31736035 -0.99205388 19.52693812 3.90171157 27.6796875 9.91796875 C34.02536229 15.61198334 38.7262428 23.17145018 42 31 C41.67 31.66 41.34 32.32 41 33 C40.27554688 32.19175781 39.55109375 31.38351563 38.8046875 30.55078125 C37.82833675 29.47116263 36.85176223 28.39174635 35.875 27.3125 C35.400625 26.78205078 34.92625 26.25160156 34.4375 25.70507812 C31.18500869 22.12294242 27.77952775 19.02250068 24 16 C24.42152344 16.54269531 24.84304687 17.08539063 25.27734375 17.64453125 C25.82519531 18.35996094 26.37304688 19.07539062 26.9375 19.8125 C27.48277344 20.52019531 28.02804688 21.22789063 28.58984375 21.95703125 C30 24 30 24 31 27 C26.88658739 25.60714147 23.49919909 23.49354633 19.87207031 21.16625977 C11.46710555 15.78477229 3.62181805 11.79627206 -6 9 C-6.96921387 8.71237793 -6.96921387 8.71237793 -7.95800781 8.41894531 C-11.95955573 7.23222597 -15.97239006 6.09565681 -20 5 C-16.19794594 3.61150477 -13.37148327 4.39258675 -9.5 5.3125 C-3.92179681 6.59664886 1.6096983 7.6102964 7.28125 8.375 C10.49546577 9.11390018 13.10867486 10.43528287 16 12 C15.18015625 11.38511719 14.3603125 10.77023438 13.515625 10.13671875 C9.01041667 6.7578125 4.50520833 3.37890625 0 0 Z "
        fill="#4F5056" transform="translate(167,52)" />
    <path
        d="M0 0 C1.21171875 -0.02578125 2.4234375 -0.0515625 3.671875 -0.078125 C7.57524877 0.27982631 9.94435647 1.17538989 13.25 3.25 C14.625 5.9375 14.625 5.9375 15.25 8.25 C12.28 7.92 9.31 7.59 6.25 7.25 C6.745 8.735 6.745 8.735 7.25 10.25 C6.39019531 10.25257812 5.53039062 10.25515625 4.64453125 10.2578125 C-3.79507156 10.53391728 -9.47874337 11.98281288 -17.0078125 15.97265625 C-19.75 17.25 -19.75 17.25 -23.75 17.25 C-23.75 16.59 -23.75 15.93 -23.75 15.25 C-26.39 14.26 -29.03 13.27 -31.75 12.25 C-31.75 11.92 -31.75 11.59 -31.75 11.25 C-30.55375 11.085 -29.3575 10.92 -28.125 10.75 C-20.95809979 9.20688751 -14.9476244 4.99491248 -8.75 1.25 C-5.83999203 -0.20500399 -3.2410667 0.04102616 0 0 Z "
        fill="#55585D" transform="translate(119.75,14.75)" />
    <path
        d="M0 0 C3.06434726 0.15714601 4.55269031 0.58353926 6.8125 2.6875 C8.3082321 5.60024146 8.22022756 7.76999584 8 11 C5.64046906 8.64046906 5.50858587 7.22104383 5 4 C4.34 4 3.68 4 3 4 C3 5.32 3 6.64 3 8 C1.35 8 -0.3 8 -2 8 C-1.34 10.97 -0.68 13.94 0 17 C-0.5775 16.484375 -1.155 15.96875 -1.75 15.4375 C-3.86080782 13.7184714 -3.86080782 13.7184714 -6.0625 14.4375 C-6.701875 14.623125 -7.34125 14.80875 -8 15 C-8.99 14.34 -9.98 13.68 -11 13 C-10.484375 14.093125 -9.96875 15.18625 -9.4375 16.3125 C-8 20 -8 20 -9 23 C-9.66 22.01 -10.32 21.02 -11 20 C-13.75641416 20.49756092 -13.75641416 20.49756092 -16 22 C-16.04092937 24.33297433 -16.04241723 26.66705225 -16 29 C-16.66 28.67 -17.32 28.34 -18 28 C-18.625 25.4375 -18.625 25.4375 -19 23 C-19.66 23.99 -20.32 24.98 -21 26 C-22.65 25.67 -24.3 25.34 -26 25 C-25.01 24.1028125 -25.01 24.1028125 -24 23.1875 C-20.4699358 19.69766446 -17.77998927 15.59285578 -14.96484375 11.5234375 C-12.20163788 7.97466813 -9.54820758 5.60642768 -5 5 C-4.34 5.33 -3.68 5.66 -3 6 C-2.87625 5.38125 -2.7525 4.7625 -2.625 4.125 C-2 2 -2 2 0 0 Z "
        fill="#2A1F27" transform="translate(309,172)" />
    <path
        d="M0 0 C5.57235458 2.45183601 10.4277359 5.54977746 15.375 9.0625 C15.99391113 9.49804199 16.61282227 9.93358398 17.25048828 10.38232422 C20.09432873 12.43198835 22.03597761 14.05396642 24 17 C18.68803833 19.65598084 14.95751429 20.76871152 9 20 C6.1875 17.8125 6.1875 17.8125 4 15 C3.13375 13.9171875 3.13375 13.9171875 2.25 12.8125 C0.40817717 8.66839864 0.252945 4.49195423 0 0 Z "
        fill="#F3222D" transform="translate(197,121)" />
    <path
        d="M0 0 C1.9375 1.5 1.9375 1.5 3 3 C2.67 3.99 2.34 4.98 2 6 C1.01 5.34 0.02 4.68 -1 4 C-3.80917938 4.21068845 -5.48792117 4.61594087 -7.75 6.3125 C-9.14744246 8.19904732 -9.6037919 9.70199304 -10 12 C-9.4225 11.319375 -8.845 10.63875 -8.25 9.9375 C-7.5075 9.298125 -6.765 8.65875 -6 8 C-3.75 8.25 -3.75 8.25 -2 9 C-2 10.65 -2 12.3 -2 14 C-3.65 14.33 -5.3 14.66 -7 15 C-7.33 17.31 -7.66 19.62 -8 22 C-7.34 22 -6.68 22 -6 22 C-4.68 20.68 -3.36 19.36 -2 18 C-2 22.62 -2 27.24 -2 32 C-8 31 -8 31 -9.64453125 29.2578125 C-10.02996094 28.55398437 -10.41539062 27.85015625 -10.8125 27.125 C-11.21082031 26.42632812 -11.60914063 25.72765625 -12.01953125 25.0078125 C-14.556998 19.81156585 -14.60076713 14.67481382 -14 9 C-12.1875 5.5 -12.1875 5.5 -10 3 C-9.566875 2.38125 -9.13375 1.7625 -8.6875 1.125 C-5.83516231 -0.77655846 -3.30661862 -0.35428057 0 0 Z "
        fill="#EAEAE6" transform="translate(157,109)" />
    <path
        d="M0 0 C7.8534486 2.31277406 14.78006468 5.79774812 22 9.625 C23.19542064 10.2526852 24.39114266 10.87979674 25.5871582 11.50634766 C29.06244737 13.32937768 32.5314575 15.16416426 36 17 C37.84753718 17.97418417 39.69518114 18.94816591 41.54296875 19.921875 C45.366495 21.93950375 49.18510288 23.96610563 53 26 C52.01 26.495 52.01 26.495 51 27 C48.44530983 25.96758273 45.98675979 24.86687742 43.5 23.6875 C34.4965683 19.51593183 25.29656813 16.0039139 15.94921875 12.6784668 C9.52629589 10.30552107 4.74366515 8.00833316 0 3 C0 2.01 0 1.02 0 0 Z "
        fill="#88898C" transform="translate(161,95)" />
    <path
        d="M0 0 C2.16743748 3.25115623 3.21656571 6.44294722 4.375 10.125 C6.25110591 15.93847359 8.38090525 21.47079998 11 27 C6.45319073 26.45438289 2.2274734 25.81177431 -2 24 C-4.69594819 15.91215544 -2.8379514 7.78747377 0 0 Z "
        fill="#E6E5E0" transform="translate(145,146)" />
    <path
        d="M0 0 C1 2 1 2 0.4609375 4.171875 C-1.96457855 9.9302944 -4.24385256 12.61604915 -10 15.1875 C-11.13050781 15.63738281 -12.26101562 16.08726563 -13.42578125 16.55078125 C-17.19265835 18.07811612 -20.64917348 19.89092429 -24.1875 21.875 C-29.78138528 25 -29.78138528 25 -32 25 C-32.33 23.68 -32.66 22.36 -33 21 C-32.23816406 20.79246094 -31.47632812 20.58492187 -30.69140625 20.37109375 C-23.12381395 18.11309805 -17.84825963 15.2562892 -12 10 C-11.10667969 9.20207031 -10.21335937 8.40414062 -9.29296875 7.58203125 C-7.54104209 6.00554789 -5.79798953 4.41911396 -4.06640625 2.8203125 C-2 1 -2 1 0 0 Z "
        fill="#EF232F" transform="translate(106,80)" />
    <path
        d="M0 0 C0.66 1.32 1.32 2.64 2 4 C1.31292969 4.23074219 0.62585938 4.46148437 -0.08203125 4.69921875 C-5.78096559 6.62820127 -5.78096559 6.62820127 -10 10.6875 C-10.33 11.450625 -10.66 12.21375 -11 13 C-11.99 13.495 -11.99 13.495 -13 14 C-13.433125 15.2375 -13.433125 15.2375 -13.875 16.5 C-15 19 -15 19 -17.125 19.8125 C-17.74375 19.874375 -18.3625 19.93625 -19 20 C-19.12375 20.70125 -19.2475 21.4025 -19.375 22.125 C-20.03838345 25.17656387 -20.97211955 28.05340938 -22 31 C-24 28 -24 28 -23.609375 25.80859375 C-23.32578125 25.02613281 -23.0421875 24.24367187 -22.75 23.4375 C-22.47671875 22.65246094 -22.2034375 21.86742187 -21.921875 21.05859375 C-21 19 -21 19 -19 17 C-18.01 17 -17.02 17 -16 17 C-16 15.68 -16 14.36 -16 13 C-19.63 12.67 -23.26 12.34 -27 12 C-27 11.34 -27 10.68 -27 10 C-21.54230189 9.88861841 -16.38490641 10.08342019 -11 11 C-11 9.35 -11 7.7 -11 6 C-10.28972656 5.73445312 -9.57945312 5.46890625 -8.84765625 5.1953125 C-7.92855469 4.84210938 -7.00945312 4.48890625 -6.0625 4.125 C-5.14597656 3.77695313 -4.22945312 3.42890625 -3.28515625 3.0703125 C-0.85058944 2.2180914 -0.85058944 2.2180914 0 0 Z "
        fill="#412F36" transform="translate(229,167)" />
    <path
        d="M0 0 C6.64215026 1.34456483 12.87813255 3.20651157 19.25 5.5 C20.12140625 5.80808594 20.9928125 6.11617188 21.890625 6.43359375 C25.95998607 7.87896132 30.00787444 9.35036134 34 11 C26.04515119 13.21197777 19.60472719 11.99959516 12.1875 8.6875 C11.45080078 8.37876953 10.71410156 8.07003906 9.95507812 7.75195312 C6.34327431 6.20217281 2.90218424 4.71936948 0 2 C0 1.34 0 0.68 0 0 Z "
        fill="#6B6B6D" transform="translate(145,68)" />
    <path
        d="M0 0 C3 1 3 1 4.75 3.4375 C5.1625 4.283125 5.575 5.12875 6 6 C5.67 6.66 5.34 7.32 5 8 C4.67 7.01 4.34 6.02 4 5 C3.34 5 2.68 5 2 5 C2 5.99 2 6.98 2 8 C-0.31 7.67 -2.62 7.34 -5 7 C-4.649375 7.9075 -4.29875 8.815 -3.9375 9.75 C-3.03531221 12.87758436 -2.86618493 14.05208081 -4 17 C-4.33 15.35 -4.66 13.7 -5 12 C-5.66 12 -6.32 12 -7 12 C-7 12.99 -7 13.98 -7 15 C-9.31 14.34 -11.62 13.68 -14 13 C-12.64847897 8.94543692 -9.90386339 7.25154664 -6.625 4.75 C-5.73941406 4.04230469 -5.73941406 4.04230469 -4.8359375 3.3203125 C-3.1015625 1.984375 -3.1015625 1.984375 0 0 Z "
        fill="#9F9E9D" transform="translate(273,204)" />
    <path
        d="M0 0 C3.125 6.625 3.125 6.625 2 10 C1.34 9.01 0.68 8.02 0 7 C-2.75641416 7.49756092 -2.75641416 7.49756092 -5 9 C-5.04092937 11.33297433 -5.04241723 13.66705225 -5 16 C-5.66 15.67 -6.32 15.34 -7 15 C-7.625 12.4375 -7.625 12.4375 -8 10 C-8.99 11.485 -8.99 11.485 -10 13 C-11.65 12.67 -13.3 12.34 -15 12 C-12.03693129 8.94433539 -8.98279839 6.02864172 -5.8125 3.1875 C-5.13832031 2.58292969 -4.46414063 1.97835937 -3.76953125 1.35546875 C-2 0 -2 0 0 0 Z "
        fill="#CAC9C8" transform="translate(298,185)" />
    <path
        d="M0 0 C3.35111834 2.23407889 4.81553956 3.26215824 5.8125 7.25 C5.874375 8.1575 5.93625 9.065 6 10 C5.01 10 4.02 10 3 10 C2.67 10.66 2.34 11.32 2 12 C1.01 10.68 0.02 9.36 -1 8 C-1.78375 8.20625 -2.5675 8.4125 -3.375 8.625 C-4.24125 8.74875 -5.1075 8.8725 -6 9 C-6.66 8.34 -7.32 7.68 -8 7 C-5.36 4.69 -2.72 2.38 0 0 Z "
        fill="#A19FA0" transform="translate(322,164)" />
</svg>